<svg width="220" height="220" viewBox="0 0 220 220" fill="none" xmlns="http://www.w3.org/2000/svg">
<circle cx="110" cy="110" r="110" fill="white"/>
<path fill-rule="evenodd" clip-rule="evenodd" d="M68.1862 95.4343C72.27 91.3505 77.4353 89.0073 82.7601 88.4046C83.351 75.379 94.0983 65 107.27 65C120.019 65 130.496 74.7236 131.692 87.1591C143.921 85.247 155.876 92.8301 159.152 105.056C162.656 118.136 154.901 131.581 141.828 135.099L141.802 135.106C140.585 135.432 139.333 134.71 139.007 133.492C138.681 132.275 139.403 131.023 140.621 130.697L140.621 130.697L140.621 130.697C151.274 127.842 157.597 116.891 154.742 106.238C151.887 95.5842 140.937 89.2619 130.283 92.1165L130.283 92.1165C129.118 92.4285 127.923 91.781 127.536 90.6586C127.348 90.327 127.241 89.9438 127.241 89.5356V89.5354H127.24V89.5351C127.24 78.5057 118.299 69.5646 107.269 69.5646C96.6501 69.5646 87.9667 77.8531 87.3356 88.3138C92.9855 88.727 98.5196 91.088 102.847 95.3967C102.86 95.4091 102.873 95.4217 102.885 95.4345C103.777 96.3258 103.777 97.7709 102.885 98.6623C101.994 99.5536 100.549 99.5536 99.6576 98.6623L99.657 98.6616L99.6567 98.6619C91.8577 90.8631 79.2131 90.8631 71.4142 98.662C63.6281 106.448 63.6152 119.064 71.3756 126.866C71.3889 126.879 71.4021 126.892 71.4152 126.905C72.3065 127.796 72.3065 129.241 71.4152 130.132C70.5239 131.024 69.0788 131.024 68.1875 130.132L68.1868 130.132L68.1862 130.132C58.6046 120.551 58.6046 105.016 68.1862 95.4343Z" fill="black"/>
<path fill-rule="evenodd" clip-rule="evenodd" d="M110.844 118.353C110.373 118.824 110.373 119.588 110.844 120.059L113.611 122.826V126.201L110.688 124.514L109.675 120.735C109.503 120.091 108.841 119.71 108.198 119.882C107.554 120.054 107.172 120.716 107.345 121.359L108.241 124.705L104.894 125.601C104.251 125.774 103.869 126.435 104.041 127.079C104.214 127.722 104.875 128.104 105.519 127.932L109.597 126.839C109.66 126.822 109.721 126.801 109.778 126.775L112.588 128.397L109.298 130.296L105.519 129.284C104.875 129.111 104.214 129.493 104.041 130.137C103.869 130.78 104.251 131.442 104.895 131.614L108.24 132.511L107.344 135.857C107.171 136.5 107.553 137.162 108.197 137.334C108.84 137.506 109.502 137.125 109.674 136.481L110.767 132.403C110.784 132.34 110.796 132.277 110.802 132.214L113.611 130.592V134.39L110.844 137.156C110.373 137.628 110.373 138.391 110.844 138.862C111.315 139.334 112.079 139.334 112.55 138.862L115 136.413L117.45 138.862C117.921 139.334 118.684 139.334 119.156 138.862C119.627 138.391 119.627 137.628 119.156 137.156L116.17 134.171C116.124 134.125 116.075 134.083 116.023 134.046V130.382L119.195 132.213C119.202 132.276 119.213 132.339 119.23 132.402L120.323 136.481C120.496 137.124 121.157 137.506 121.801 137.334C122.444 137.161 122.826 136.5 122.654 135.856L121.757 132.511L125.104 131.614C125.747 131.442 126.129 130.78 125.957 130.137C125.784 129.493 125.123 129.111 124.479 129.284L120.7 130.296L117.411 128.397L120.222 126.775C120.279 126.801 120.34 126.822 120.403 126.839L124.481 127.932C125.125 128.104 125.786 127.722 125.959 127.079C126.131 126.435 125.749 125.774 125.106 125.601L121.759 124.705L122.655 121.359C122.828 120.716 122.446 120.054 121.802 119.882C121.159 119.71 120.497 120.091 120.325 120.735L119.312 124.514L116.023 126.413V123.17C116.075 123.133 116.124 123.091 116.17 123.045L119.156 120.059C119.627 119.588 119.627 118.824 119.156 118.353C118.684 117.882 117.921 117.882 117.45 118.353L115 120.803L112.55 118.353C112.079 117.882 111.315 117.882 110.844 118.353Z" fill="#77AEFF"/>
<path fill-rule="evenodd" clip-rule="evenodd" d="M127.356 138.225C127.056 138.525 127.056 139.011 127.356 139.311L129.117 141.071V143.219L127.256 142.145L126.611 139.74C126.501 139.331 126.08 139.088 125.671 139.197C125.261 139.307 125.018 139.728 125.128 140.138L125.699 142.267L123.569 142.837C123.16 142.947 122.917 143.368 123.026 143.777C123.136 144.187 123.557 144.43 123.967 144.32L126.562 143.625C126.602 143.614 126.64 143.6 126.677 143.584L128.465 144.616L126.372 145.825L123.967 145.18C123.557 145.071 123.136 145.314 123.026 145.723C122.917 146.133 123.16 146.554 123.569 146.663L125.699 147.234L125.128 149.363C125.019 149.773 125.262 150.194 125.671 150.303C126.081 150.413 126.502 150.17 126.611 149.76L127.307 147.165C127.317 147.125 127.325 147.085 127.329 147.045L129.117 146.013V148.43L127.356 150.19C127.056 150.49 127.056 150.976 127.356 151.276C127.656 151.576 128.142 151.576 128.442 151.276L130 149.717L131.559 151.276C131.859 151.576 132.345 151.576 132.645 151.276C132.945 150.976 132.945 150.49 132.645 150.19L130.745 148.29C130.716 148.261 130.685 148.234 130.652 148.211V145.879L132.671 147.045C132.675 147.085 132.682 147.125 132.693 147.165L133.388 149.76C133.498 150.17 133.919 150.413 134.329 150.303C134.738 150.194 134.981 149.773 134.871 149.363L134.301 147.234L136.43 146.663C136.84 146.554 137.083 146.133 136.973 145.723C136.863 145.314 136.443 145.071 136.033 145.18L133.628 145.825L131.535 144.616L133.323 143.584C133.359 143.6 133.398 143.614 133.438 143.625L136.033 144.32C136.443 144.43 136.864 144.187 136.974 143.777C137.083 143.368 136.84 142.947 136.431 142.837L134.301 142.267L134.872 140.138C134.982 139.728 134.739 139.307 134.329 139.197C133.92 139.088 133.499 139.331 133.389 139.74L132.744 142.145L130.652 143.353V141.29C130.685 141.266 130.716 141.24 130.745 141.21L132.645 139.311C132.945 139.011 132.945 138.525 132.645 138.225C132.345 137.925 131.859 137.925 131.559 138.225L130 139.784L128.442 138.225C128.142 137.925 127.656 137.925 127.356 138.225Z" fill="#77AEFF"/>
<path fill-rule="evenodd" clip-rule="evenodd" d="M84.4214 130.177C84.1858 130.412 84.1858 130.794 84.4214 131.03L85.8049 132.413V134.101L84.3438 133.257L83.8374 131.367C83.7512 131.046 83.4204 130.855 83.0986 130.941C82.7769 131.027 82.5859 131.358 82.6721 131.68L83.1204 133.353L81.4472 133.801C81.1254 133.887 80.9345 134.218 81.0207 134.54C81.1069 134.862 81.4377 135.052 81.7595 134.966L83.7987 134.42C83.8301 134.411 83.8604 134.401 83.8892 134.388L85.2938 135.199L83.6494 136.148L81.7601 135.642C81.4383 135.556 81.1076 135.747 81.0214 136.068C80.9351 136.39 81.1261 136.721 81.4479 136.807L83.121 137.255L82.6728 138.928C82.5866 139.25 82.7775 139.581 83.0993 139.667C83.4211 139.753 83.7518 139.562 83.8381 139.24L84.3845 137.201C84.3929 137.17 84.3987 137.138 84.4019 137.107L85.8049 136.297V138.195L84.4214 139.578C84.1858 139.814 84.1858 140.196 84.4214 140.431C84.6569 140.667 85.0389 140.667 85.2744 140.431L86.4993 139.207L87.7242 140.431C87.9598 140.667 88.3417 140.667 88.5773 140.431C88.8128 140.196 88.8128 139.814 88.5773 139.578L87.0845 138.086C87.0614 138.063 87.0369 138.042 87.0113 138.023V136.191L88.5975 137.107C88.6008 137.138 88.6066 137.17 88.615 137.201L89.1614 139.24C89.2477 139.562 89.5784 139.753 89.9002 139.667C90.222 139.581 90.4129 139.25 90.3267 138.928L89.8785 137.255L91.5516 136.807C91.8734 136.721 92.0644 136.39 91.9781 136.068C91.8919 135.747 91.5612 135.556 91.2394 135.642L89.3501 136.148L87.7057 135.199L89.1103 134.388C89.1391 134.401 89.1693 134.411 89.2008 134.42L91.24 134.966C91.5618 135.052 91.8926 134.862 91.9788 134.54C92.065 134.218 91.874 133.887 91.5523 133.801L89.8791 133.353L90.3273 131.68C90.4136 131.358 90.2226 131.027 89.9008 130.941C89.579 130.855 89.2483 131.046 89.1621 131.367L88.6557 133.257L87.0113 134.207V132.585C87.0369 132.566 87.0614 132.546 87.0845 132.523L88.5773 131.03C88.8128 130.794 88.8128 130.412 88.5773 130.177C88.3417 129.941 87.9598 129.941 87.7242 130.177L86.4993 131.402L85.2744 130.177C85.0389 129.941 84.6569 129.941 84.4214 130.177Z" fill="#77AEFF"/>
<path fill-rule="evenodd" clip-rule="evenodd" d="M102.421 144.177C102.186 144.412 102.186 144.794 102.421 145.03L103.805 146.413V148.101L102.344 147.257L101.837 145.367C101.751 145.046 101.42 144.855 101.099 144.941C100.777 145.027 100.586 145.358 100.672 145.68L101.12 147.353L99.4472 147.801C99.1254 147.887 98.9345 148.218 99.0207 148.54C99.1069 148.862 99.4377 149.052 99.7595 148.966L101.799 148.42C101.83 148.411 101.86 148.401 101.889 148.388L103.294 149.199L101.649 150.148L99.7601 149.642C99.4383 149.556 99.1076 149.747 99.0214 150.068C98.9351 150.39 99.1261 150.721 99.4479 150.807L101.121 151.255L100.673 152.928C100.587 153.25 100.778 153.581 101.099 153.667C101.421 153.753 101.752 153.562 101.838 153.24L102.384 151.201C102.393 151.17 102.399 151.138 102.402 151.107L103.805 150.297V152.195L102.421 153.578C102.186 153.814 102.186 154.196 102.421 154.431C102.657 154.667 103.039 154.667 103.274 154.431L104.499 153.207L105.724 154.431C105.96 154.667 106.342 154.667 106.577 154.431C106.813 154.196 106.813 153.814 106.577 153.578L105.084 152.086C105.061 152.063 105.037 152.042 105.011 152.023V150.191L106.598 151.107C106.601 151.138 106.607 151.17 106.615 151.201L107.161 153.24C107.248 153.562 107.578 153.753 107.9 153.667C108.222 153.581 108.413 153.25 108.327 152.928L107.879 151.255L109.552 150.807C109.873 150.721 110.064 150.39 109.978 150.068C109.892 149.747 109.561 149.556 109.239 149.642L107.35 150.148L105.706 149.199L107.11 148.388C107.139 148.401 107.169 148.411 107.201 148.42L109.24 148.966C109.562 149.052 109.893 148.862 109.979 148.54C110.065 148.218 109.874 147.887 109.552 147.801L107.879 147.353L108.327 145.68C108.414 145.358 108.223 145.027 107.901 144.941C107.579 144.855 107.248 145.046 107.162 145.367L106.656 147.257L105.011 148.207V146.585C105.037 146.566 105.061 146.546 105.084 146.523L106.577 145.03C106.813 144.794 106.813 144.412 106.577 144.177C106.342 143.941 105.96 143.941 105.724 144.177L104.499 145.402L103.274 144.177C103.039 143.941 102.657 143.941 102.421 144.177Z" fill="#77AEFF"/>
</svg>
