<svg width="220" height="220" viewBox="0 0 220 220" fill="none" xmlns="http://www.w3.org/2000/svg">
<circle cx="110" cy="110" r="110" fill="white"/>
<path fill-rule="evenodd" clip-rule="evenodd" d="M68.1862 98.4343C72.27 94.3505 77.4353 92.0073 82.7601 91.4046C83.351 78.379 94.0983 68 107.27 68C120.019 68 130.496 77.7236 131.692 90.1591C143.921 88.247 155.876 95.8301 159.152 108.056C162.656 121.136 154.901 134.581 141.828 138.099L141.802 138.106C140.585 138.432 139.333 137.71 139.007 136.492C138.681 135.275 139.403 134.023 140.621 133.697L140.621 133.697L140.621 133.697C151.274 130.842 157.597 119.891 154.742 109.238C151.887 98.5842 140.937 92.2619 130.283 95.1165L130.283 95.1165C129.118 95.4285 127.923 94.781 127.536 93.6586C127.348 93.327 127.241 92.9438 127.241 92.5356V92.5354H127.24V92.5351C127.24 81.5057 118.299 72.5646 107.269 72.5646C96.6501 72.5646 87.9667 80.8531 87.3356 91.3138C92.9855 91.727 98.5196 94.088 102.847 98.3967C102.86 98.4091 102.873 98.4217 102.885 98.4345C103.777 99.3258 103.777 100.771 102.885 101.662C101.994 102.554 100.549 102.554 99.6576 101.662L99.657 101.662L99.6567 101.662C91.8577 93.8631 79.2131 93.8631 71.4142 101.662C63.6281 109.448 63.6152 122.064 71.3756 129.866C71.3889 129.879 71.4021 129.892 71.4152 129.905C72.3065 130.796 72.3065 132.241 71.4152 133.132C70.5239 134.024 69.0788 134.024 68.1875 133.132L68.1868 133.132L68.1862 133.132C58.6046 123.551 58.6046 108.016 68.1862 98.4343Z" fill="black"/>
<path fill-rule="evenodd" clip-rule="evenodd" d="M133 127.5C133 129.985 130.985 132 128.5 132C128.331 132 128.164 131.991 128 131.973V132H100C98.8954 132 98 132.895 98 134C98 135.105 98.8954 136 100 136H128.5H129C129.16 136 129.315 135.981 129.464 135.946C133.704 135.467 137 131.869 137 127.5C137 122.806 133.194 119 128.5 119C128.387 119 128.275 119.002 128.163 119.007C128.109 119.002 128.055 119 128 119C126.895 119 126 119.895 126 121C126 122.105 126.895 123 128 123V123.027C128.164 123.009 128.331 123 128.5 123C130.985 123 133 125.015 133 127.5ZM86 126C86 124.895 86.8954 124 88 124H114C115.105 124 116 124.895 116 126C116 127.105 115.105 128 114 128H88C86.8954 128 86 127.105 86 126ZM113.5 143C115.985 143 118 145.015 118 147.5C118 149.985 115.985 152 113.5 152C113.331 152 113.164 151.991 113 151.973V152C111.895 152 111 152.895 111 154C111 155.105 111.895 156 113 156C113.055 156 113.109 155.998 113.163 155.993C113.275 155.998 113.387 156 113.5 156C118.194 156 122 152.194 122 147.5C122 143.131 118.704 139.533 114.464 139.054C114.315 139.019 114.16 139 114 139H113.5H85C83.8954 139 83 139.895 83 141C83 142.105 83.8954 143 85 143H113V143.027C113.164 143.009 113.331 143 113.5 143Z" fill="url(#paint0_linear_16_780)"/>
<defs>
<linearGradient id="paint0_linear_16_780" x1="83" y1="128" x2="110" y2="156" gradientUnits="userSpaceOnUse">
<stop stop-color="#95BFFF"/>
<stop offset="1" stop-color="#5096FF"/>
</linearGradient>
</defs>
</svg>
