<svg width="220" height="220" viewBox="0 0 220 220" fill="none" xmlns="http://www.w3.org/2000/svg">
<circle cx="110" cy="110" r="110" fill="white"/>
<path fill-rule="evenodd" clip-rule="evenodd" d="M68.1862 96.4343C72.27 92.3505 77.4353 90.0073 82.7601 89.4046C83.351 76.379 94.0983 66 107.27 66C120.019 66 130.496 75.7236 131.692 88.1591C143.921 86.247 155.876 93.8301 159.152 106.056C162.656 119.136 154.901 132.581 141.828 136.099L141.802 136.106C140.585 136.432 139.333 135.71 139.007 134.492C138.681 133.275 139.403 132.023 140.621 131.697L140.621 131.697L140.621 131.697C151.274 128.842 157.597 117.891 154.742 107.238C151.887 96.5842 140.937 90.2619 130.283 93.1165C129.118 93.4285 127.923 92.781 127.536 91.6586C127.348 91.327 127.241 90.9438 127.241 90.5356V90.5354H127.24V90.5351C127.24 79.5057 118.299 70.5646 107.269 70.5646C96.6501 70.5646 87.9667 78.8531 87.3356 89.3138C92.9855 89.727 98.5196 92.088 102.847 96.3967C102.86 96.4091 102.873 96.4217 102.885 96.4345C103.777 97.3258 103.777 98.7709 102.885 99.6623C101.994 100.554 100.549 100.554 99.6576 99.6623L99.657 99.6616L99.6567 99.6619C91.8577 91.8631 79.2131 91.8631 71.4142 99.662C63.6281 107.448 63.6152 120.064 71.3756 127.866C71.3889 127.879 71.4021 127.892 71.4152 127.905C72.3065 128.796 72.3065 130.241 71.4152 131.132C70.5239 132.024 69.0788 132.024 68.1875 131.132L68.1868 131.132L68.1862 131.132C58.6046 121.551 58.6046 106.016 68.1862 96.4343Z" fill="black"/>
<path fill-rule="evenodd" clip-rule="evenodd" d="M116.204 112.41C116.082 112.383 115.954 112.368 115.823 112.368H104.64C103.682 112.368 102.905 113.145 102.905 114.103C102.905 114.12 102.905 114.136 102.905 114.153C102.892 114.192 102.879 114.233 102.868 114.274L97.0596 135.952C96.8115 136.878 97.3609 137.829 98.2866 138.077C98.4441 138.12 98.6023 138.139 98.7577 138.137C98.9112 138.181 99.0734 138.205 99.2412 138.205H104.652L99.5221 157.349C99.274 158.274 99.8234 159.226 100.749 159.474C100.878 159.509 101.008 159.528 101.136 159.532C101.693 159.652 102.297 159.496 102.73 159.063L127.543 134.25C127.666 134.126 127.767 133.989 127.846 133.843C128.161 133.529 128.356 133.094 128.356 132.614C128.356 131.655 127.579 130.878 126.621 130.878H113.58L117.944 114.594C118.192 113.668 117.643 112.717 116.717 112.469C116.545 112.423 116.373 112.404 116.204 112.41ZM106.709 134.74C106.922 134.715 107.144 134.728 107.364 134.787C108.29 135.036 108.839 135.987 108.591 136.913L104.425 152.459L122.535 134.349L111.581 134.349C111.517 134.349 111.453 134.345 111.391 134.339C111.22 134.345 111.046 134.327 110.872 134.28C109.947 134.032 109.397 133.081 109.645 132.155L114.017 115.839L106.042 115.839L100.979 134.735H106.568C106.616 134.735 106.662 134.736 106.709 134.74Z" fill="#FFD600"/>
</svg>
