<svg width="220" height="220" viewBox="0 0 220 220" fill="none" xmlns="http://www.w3.org/2000/svg">
<circle cx="110" cy="110" r="110" fill="white"/>
<path d="M165.458 100.253L163.723 99.0034C163.542 98.854 163.324 98.7349 163.081 98.6535C162.838 98.5721 162.576 98.5301 162.311 98.5301C162.047 98.5301 161.785 98.5721 161.542 98.6535C161.299 98.7349 161.081 98.854 160.9 99.0034L160.496 99.3158C157.309 101.761 153.003 103.133 148.516 103.133C144.029 103.133 139.723 101.761 136.535 99.3158C134.366 97.6308 131.788 96.2939 128.95 95.3817C126.112 94.4695 123.07 94 119.997 94C116.924 94 113.882 94.4695 111.044 95.3817C108.206 96.2939 105.628 97.6308 103.458 99.3158L102.611 99.9718C102.418 100.112 102.264 100.281 102.159 100.469C102.054 100.657 102 100.86 102 101.065C102 101.27 102.054 101.473 102.159 101.661C102.264 101.849 102.418 102.018 102.611 102.158L104.305 103.377C104.689 103.665 105.203 103.826 105.737 103.826C106.272 103.826 106.786 103.665 107.169 103.377L108.016 102.721C109.59 101.502 111.457 100.536 113.513 99.8763C115.569 99.2169 117.772 98.8775 119.997 98.8775C122.222 98.8775 124.425 99.2169 126.481 99.8763C128.536 100.536 130.404 101.502 131.977 102.721C134.149 104.4 136.729 105.732 139.567 106.637C142.405 107.543 145.446 108.006 148.516 108C151.586 108.008 154.628 107.546 157.466 106.64C160.305 105.734 162.884 104.402 165.054 102.721L165.458 102.408C165.807 102.114 166 101.73 166 101.331C166 100.931 165.807 100.547 165.458 100.253Z" fill="#121212"/>
<path d="M174.458 119.253L172.723 118.003C172.542 117.854 172.324 117.735 172.081 117.653C171.838 117.572 171.576 117.53 171.311 117.53C171.047 117.53 170.785 117.572 170.542 117.653C170.299 117.735 170.081 117.854 169.9 118.003L169.496 118.316C166.309 120.761 162.003 122.133 157.516 122.133C153.029 122.133 148.723 120.761 145.535 118.316C143.366 116.631 140.788 115.294 137.95 114.382C135.112 113.47 132.07 113 128.997 113C125.924 113 122.882 113.47 120.044 114.382C117.206 115.294 114.628 116.631 112.458 118.316L111.611 118.972C111.418 119.112 111.264 119.281 111.159 119.469C111.054 119.657 111 119.86 111 120.065C111 120.27 111.054 120.473 111.159 120.661C111.264 120.849 111.418 121.018 111.611 121.158L113.305 122.377C113.689 122.665 114.203 122.826 114.737 122.826C115.272 122.826 115.786 122.665 116.169 122.377L117.016 121.721C118.59 120.502 120.457 119.536 122.513 118.876C124.569 118.217 126.772 117.878 128.997 117.878C131.222 117.878 133.425 118.217 135.481 118.876C137.536 119.536 139.404 120.502 140.977 121.721C143.149 123.4 145.729 124.732 148.567 125.637C151.405 126.543 154.446 127.006 157.516 127C160.586 127.008 163.628 126.546 166.466 125.64C169.305 124.734 171.884 123.402 174.054 121.721L174.458 121.408C174.807 121.114 175 120.73 175 120.331C175 119.931 174.807 119.547 174.458 119.253Z" fill="#121212"/>
<path d="M133.458 136.253L131.723 135.003C131.542 134.854 131.324 134.735 131.081 134.653C130.838 134.572 130.576 134.53 130.311 134.53C130.047 134.53 129.785 134.572 129.542 134.653C129.299 134.735 129.081 134.854 128.9 135.003L128.496 135.316C125.309 137.761 121.003 139.133 116.516 139.133C112.029 139.133 107.723 137.761 104.535 135.316C102.366 133.631 99.7882 132.294 96.9502 131.382C94.1122 130.47 91.0696 130 87.9969 130C84.9241 130 81.8816 130.47 79.0436 131.382C76.2056 132.294 73.6279 133.631 71.4583 135.316L70.6112 135.972C70.4183 136.112 70.2645 136.281 70.1594 136.469C70.0542 136.657 70 136.86 70 137.065C70 137.27 70.0542 137.473 70.1594 137.661C70.2645 137.849 70.4183 138.018 70.6112 138.158L72.3054 139.377C72.6892 139.665 73.2028 139.826 73.7374 139.826C74.272 139.826 74.7856 139.665 75.1694 139.377L76.0165 138.721C77.5897 137.502 79.4575 136.536 81.5131 135.876C83.5687 135.217 85.7719 134.878 87.9969 134.878C90.2219 134.878 92.4251 135.217 94.4807 135.876C96.5363 136.536 98.4041 137.502 99.9773 138.721C102.149 140.4 104.729 141.732 107.567 142.637C110.405 143.543 113.446 144.006 116.516 144C119.586 144.008 122.628 143.546 125.466 142.64C128.305 141.734 130.884 140.402 133.054 138.721L133.458 138.408C133.807 138.114 134 137.73 134 137.331C134 136.931 133.807 136.547 133.458 136.253Z" fill="#121212"/>
<path d="M98.7822 106.876C98.7324 106.681 98.6447 106.497 98.5242 106.335C98.4036 106.174 98.2525 106.038 98.0796 105.936C97.9067 105.833 97.7154 105.766 97.5165 105.738C97.3177 105.71 97.1153 105.721 96.921 105.772L90.8188 107.305L83.5114 103.15H89.6136C89.9171 103.15 90.2081 103.029 90.4227 102.813C90.6372 102.598 90.7578 102.305 90.7578 102C90.7578 101.695 90.6372 101.402 90.4227 101.187C90.2081 100.971 89.9171 100.85 89.6136 100.85H83.5114L90.7883 96.618L96.8905 98.1513C97.0171 98.1674 97.1452 98.1674 97.2719 98.1513C97.6765 98.2022 98.0846 98.0894 98.4065 97.8378C98.7283 97.5861 98.9375 97.2163 98.9881 96.8097C99.0387 96.403 98.9265 95.9928 98.6761 95.6693C98.4258 95.3458 98.0579 95.1355 97.6533 95.0847L94.6022 94.272L97.8211 92.4013C98.0034 92.3055 98.1645 92.1735 98.2948 92.0135C98.4251 91.8534 98.5218 91.6685 98.5791 91.4699C98.6364 91.2713 98.6532 91.0631 98.6284 90.8578C98.6036 90.6525 98.5377 90.4544 98.4347 90.2753C98.3318 90.0963 98.1938 89.94 98.0292 89.816C97.8646 89.6919 97.6767 89.6026 97.4769 89.5534C97.2771 89.5042 97.0694 89.4961 96.8664 89.5297C96.6633 89.5632 96.4692 89.6377 96.2955 89.7487L93.0766 91.6193L93.9309 88.5527C94.0381 88.1602 93.9859 87.7411 93.7856 87.3874C93.6864 87.2122 93.5539 87.0585 93.3956 86.9348C93.2373 86.8111 93.0564 86.72 92.863 86.6667C92.4726 86.5589 92.0556 86.6114 91.7037 86.8127C91.3518 87.014 91.0938 87.3476 90.9866 87.74L89.3085 93.8733L81.9859 98.1973L85.037 92.892C85.1121 92.7611 85.1608 92.6166 85.1804 92.4668C85.2 92.317 85.19 92.1648 85.1511 92.0188C85.1121 91.8729 85.0449 91.7361 84.9534 91.6162C84.8618 91.4964 84.7477 91.3958 84.6175 91.3203C84.3545 91.1678 84.042 91.1266 83.7487 91.2057C83.4555 91.2847 83.2055 91.4777 83.0538 91.742L80.0027 97.0473V88.5987L84.442 83.9987C84.7252 83.7079 84.8819 83.316 84.8776 82.9091C84.8734 82.5022 84.7084 82.1137 84.4191 81.829C84.1298 81.5443 83.7399 81.3868 83.3351 81.3911C82.9302 81.3955 82.5437 81.5612 82.2605 81.852L80.0027 84.2287V80.5333C80.0027 80.1267 79.8419 79.7367 79.5558 79.4491C79.2697 79.1615 78.8817 79 78.4771 79C78.0725 79 77.6845 79.1615 77.3984 79.4491C77.1123 79.7367 76.9516 80.1267 76.9516 80.5333V84.2287L74.6938 81.9133C74.4105 81.6226 74.024 81.4568 73.6192 81.4525C73.2143 81.4482 72.8244 81.6057 72.5351 81.8903C72.2458 82.175 72.0809 82.5635 72.0766 82.9704C72.0723 83.3773 72.229 83.7692 72.5122 84.06L76.9516 88.66V97.1087L73.9005 91.8033C73.7487 91.539 73.4988 91.3461 73.2055 91.267C72.9123 91.1879 72.5998 91.2292 72.3368 91.3817C72.0738 91.5342 71.8818 91.7854 71.8032 92.0802C71.7245 92.3749 71.7655 92.689 71.9173 92.9533L74.9684 98.2587L67.6915 94.0267L66.0134 87.8933C65.9062 87.5009 65.6482 87.1674 65.2963 86.9661C64.9444 86.7648 64.5274 86.7122 64.137 86.82C63.7465 86.9278 63.4147 87.187 63.2144 87.5407C63.0141 87.8944 62.9619 88.3136 63.0691 88.706L63.9234 91.7727L60.7045 89.9173C60.3558 89.734 59.9502 89.6932 59.5723 89.8034C59.1944 89.9136 58.8735 90.1663 58.6766 90.5086C58.4797 90.851 58.422 91.2567 58.5156 91.6408C58.6092 92.0249 58.8469 92.3578 59.1789 92.57L62.3978 94.4407L59.3467 95.2533C58.9421 95.3042 58.5742 95.5145 58.3239 95.838C58.0735 96.1615 57.9613 96.5717 58.0119 96.9783C58.0625 97.385 58.2717 97.7548 58.5935 98.0064C58.9154 98.258 59.3235 98.3708 59.7281 98.32C59.8547 98.336 59.9829 98.336 60.1095 98.32L66.2117 96.7867L73.4886 101.019H67.3864C67.0829 101.019 66.7919 101.14 66.5773 101.355C66.3628 101.571 66.2422 101.864 66.2422 102.169C66.2422 102.474 66.3628 102.766 66.5773 102.982C66.7919 103.198 67.0829 103.319 67.3864 103.319H73.4886L66.2117 107.551L60.1095 106.017C59.9152 105.967 59.7129 105.956 59.5142 105.984C59.3155 106.012 59.1243 106.079 58.9514 106.182C58.6024 106.389 58.3495 106.727 58.2483 107.121C58.1983 107.317 58.1869 107.52 58.215 107.72C58.2431 107.919 58.3101 108.112 58.4121 108.285C58.5141 108.459 58.6491 108.611 58.8095 108.732C58.9698 108.853 59.1524 108.942 59.3467 108.992L62.3978 109.805L59.1789 111.43C58.8469 111.642 58.6092 111.975 58.5156 112.359C58.422 112.743 58.4797 113.149 58.6766 113.491C58.8735 113.834 59.1944 114.086 59.5723 114.197C59.9502 114.307 60.3558 114.266 60.7045 114.083L63.9234 112.212L63.0691 115.279C63.0158 115.473 63.0012 115.676 63.0261 115.876C63.051 116.076 63.1148 116.269 63.214 116.444C63.3132 116.619 63.4457 116.773 63.6041 116.897C63.7625 117.02 63.9436 117.111 64.137 117.165C64.2736 117.183 64.4122 117.183 64.5489 117.165C64.8913 117.177 65.228 117.074 65.5047 116.871C65.7814 116.668 65.9821 116.377 66.0744 116.045L67.7525 109.912L75.0294 105.68L71.9783 110.985C71.9032 111.116 71.8544 111.261 71.8348 111.411C71.8153 111.56 71.8252 111.713 71.8642 111.858C71.9031 112.004 71.9703 112.141 72.0619 112.261C72.1534 112.381 72.2676 112.481 72.3978 112.557C72.528 112.633 72.6718 112.682 72.8208 112.701C72.9699 112.721 73.1213 112.711 73.2665 112.672C73.4117 112.633 73.5478 112.565 73.6671 112.473C73.7863 112.381 73.8864 112.266 73.9615 112.135L77.0126 106.83V115.279L72.5732 119.879C72.433 120.023 72.3224 120.193 72.2476 120.38C72.1729 120.567 72.1355 120.767 72.1376 120.968C72.1397 121.17 72.1813 121.369 72.26 121.554C72.3387 121.739 72.4529 121.907 72.5961 122.048C72.8854 122.333 73.2754 122.49 73.6802 122.486C73.8806 122.484 74.0787 122.442 74.2631 122.363C74.4475 122.284 74.6145 122.169 74.7548 122.025L76.9516 119.771V123.467C76.9516 123.873 77.1123 124.263 77.3984 124.551C77.6845 124.838 78.0725 125 78.4771 125C78.8817 125 79.2697 124.838 79.5558 124.551C79.8419 124.263 80.0027 123.873 80.0027 123.467V119.771L82.2605 122.087C82.4007 122.231 82.5678 122.345 82.7522 122.425C82.9365 122.504 83.1346 122.545 83.3351 122.548C83.5355 122.55 83.7344 122.512 83.9204 122.437C84.1064 122.362 84.2759 122.251 84.4191 122.11C84.5624 121.969 84.6766 121.801 84.7553 121.615C84.8339 121.43 84.8755 121.231 84.8776 121.03C84.8798 120.828 84.8424 120.628 84.7676 120.441C84.6929 120.254 84.5822 120.084 84.442 119.94L80.0027 115.34V106.953L83.0538 112.258C83.1289 112.389 83.2289 112.504 83.3482 112.596C83.4674 112.688 83.6035 112.755 83.7487 112.794C83.8939 112.833 84.0454 112.844 84.1944 112.824C84.3435 112.804 84.4872 112.755 84.6175 112.68C84.7477 112.604 84.8618 112.504 84.9534 112.384C85.0449 112.264 85.1121 112.127 85.1511 111.981C85.19 111.835 85.2 111.683 85.1804 111.533C85.1608 111.383 85.1121 111.239 85.037 111.108L81.9859 105.803L89.2627 110.035L90.9408 116.168C91.0331 116.5 91.2338 116.79 91.5106 116.994C91.7873 117.197 92.124 117.3 92.4664 117.287C92.6031 117.306 92.7416 117.306 92.8783 117.287C93.0717 117.234 93.2528 117.143 93.4111 117.019C93.5695 116.896 93.7021 116.742 93.8013 116.567C93.9004 116.392 93.9643 116.199 93.9892 115.999C94.014 115.799 93.9994 115.596 93.9462 115.401L93.0919 112.335L96.3108 114.205C96.4844 114.316 96.6786 114.391 96.8816 114.424C97.0846 114.458 97.2923 114.45 97.4921 114.401C97.692 114.351 97.8799 114.262 98.0445 114.138C98.2091 114.014 98.347 113.858 98.45 113.679C98.5529 113.5 98.6188 113.302 98.6436 113.096C98.6684 112.891 98.6517 112.683 98.5943 112.484C98.537 112.286 98.4403 112.101 98.31 111.941C98.1798 111.78 98.0186 111.649 97.8363 111.553L94.6174 109.682L97.6685 108.869C97.8781 108.823 98.0756 108.732 98.248 108.603C98.4204 108.475 98.5638 108.311 98.6689 108.123C98.774 107.935 98.8384 107.727 98.858 107.512C98.8775 107.297 98.8517 107.08 98.7822 106.876Z" fill="#4EA6FF"/>
<circle cx="64" cy="145" r="3" fill="#4EA6FF"/>
<circle cx="46.5" cy="111.5" r="2.5" fill="#4E75FF"/>
<circle cx="136" cy="131" r="2" fill="#4EA6FF"/>
<circle cx="109.5" cy="73.5" r="1.5" fill="#4E75FF"/>
</svg>
