<svg width="220" height="220" viewBox="0 0 220 220" fill="none" xmlns="http://www.w3.org/2000/svg">
<circle cx="110" cy="110" r="110" fill="white"/>
<path fill-rule="evenodd" clip-rule="evenodd" d="M132.835 67C134.415 67 135.697 68.2816 135.697 69.8625C135.697 71.4433 134.415 72.7249 132.835 72.7249C131.254 72.7249 129.972 71.4433 129.972 69.8625C129.972 68.2816 131.254 67 132.835 67ZM132.835 115.253C143.449 115.253 152.054 106.648 152.054 96.0334C152.054 85.4189 143.449 76.8141 132.835 76.8141C122.22 76.8141 113.615 85.4189 113.615 96.0334C113.615 106.648 122.22 115.253 132.835 115.253ZM159.006 98.8959C160.586 98.8959 161.868 97.6143 161.868 96.0334C161.868 94.4525 160.586 93.171 159.006 93.171C157.425 93.171 156.143 94.4525 156.143 96.0334C156.143 97.6143 157.425 98.8959 159.006 98.8959ZM153.364 116.563C152.246 117.681 150.434 117.681 149.316 116.563C148.198 115.445 148.198 113.633 149.316 112.515C150.434 111.397 152.246 111.397 153.364 112.515C154.482 113.633 154.482 115.445 153.364 116.563ZM112.305 79.5518C113.423 80.6697 115.235 80.6697 116.353 79.5518C117.471 78.434 117.471 76.6216 116.353 75.5037C115.235 74.3859 113.423 74.3859 112.305 75.5037C111.187 76.6216 111.187 78.434 112.305 79.5518ZM149.316 79.5522C148.198 78.4343 148.198 76.6219 149.316 75.5041C150.434 74.3862 152.246 74.3862 153.364 75.5041C154.482 76.6219 154.482 78.4343 153.364 79.5522C152.246 80.67 150.434 80.67 149.316 79.5522Z" fill="#FFD600"/>
<path fill-rule="evenodd" clip-rule="evenodd" d="M65.1862 108.066C69.27 103.982 74.4353 101.639 79.7601 101.036C80.351 88.0108 91.0983 77.6318 104.27 77.6318C117.019 77.6318 127.496 87.3554 128.692 99.7909C140.921 97.8788 152.876 105.462 156.152 117.688C159.656 130.768 151.901 144.213 138.828 147.731L138.802 147.738C137.585 148.064 136.333 147.341 136.007 146.124C135.681 144.906 136.403 143.655 137.621 143.329L137.621 143.329L137.621 143.329C148.274 140.474 154.597 129.523 151.742 118.87C148.887 108.216 137.937 101.894 127.283 104.748L127.283 104.748C126.118 105.06 124.923 104.413 124.536 103.29C124.348 102.959 124.241 102.576 124.241 102.167V102.167H124.24V102.167C124.24 91.1375 115.299 82.1964 104.269 82.1964C93.6501 82.1964 84.9667 90.485 84.3356 100.946C89.9855 101.359 95.5196 103.72 99.8467 108.029C99.8597 108.041 99.8726 108.054 99.8854 108.066C100.777 108.958 100.777 110.403 99.8854 111.294C98.9941 112.185 97.549 112.185 96.6576 111.294L96.657 111.293L96.6567 111.294C88.8577 103.495 76.2131 103.495 68.4142 111.294C60.6281 119.08 60.6152 131.696 68.3756 139.498C68.3889 139.511 68.4021 139.523 68.4152 139.537C69.3065 140.428 69.3065 141.873 68.4152 142.764C67.5239 143.656 66.0788 143.656 65.1875 142.764L65.1868 142.764L65.1862 142.764C55.6046 133.183 55.6046 117.648 65.1862 108.066Z" fill="black"/>
<rect x="104" y="124" width="5" height="13" rx="2.5" fill="url(#paint0_linear_16_504)"/>
<rect x="89" y="131" width="5" height="13" rx="2.5" fill="url(#paint1_linear_16_504)"/>
<rect x="79" y="141" width="5" height="13" rx="2.5" fill="url(#paint2_linear_16_504)"/>
<rect x="98" y="145" width="5" height="13" rx="2.5" fill="url(#paint3_linear_16_504)"/>
<rect x="112" y="152" width="5" height="13" rx="2.5" fill="url(#paint4_linear_16_504)"/>
<rect x="115" y="132" width="5" height="13" rx="2.5" fill="url(#paint5_linear_16_504)"/>
<rect x="126" y="141" width="5" height="13" rx="2.5" fill="url(#paint6_linear_16_504)"/>
<defs>
<linearGradient id="paint0_linear_16_504" x1="106.5" y1="124" x2="106.5" y2="137" gradientUnits="userSpaceOnUse">
<stop stop-color="#89B9FF"/>
<stop offset="1" stop-color="#4B94FF"/>
</linearGradient>
<linearGradient id="paint1_linear_16_504" x1="91.5" y1="131" x2="91.5" y2="144" gradientUnits="userSpaceOnUse">
<stop stop-color="#89B9FF"/>
<stop offset="1" stop-color="#4B94FF"/>
</linearGradient>
<linearGradient id="paint2_linear_16_504" x1="81.5" y1="141" x2="81.5" y2="154" gradientUnits="userSpaceOnUse">
<stop stop-color="#89B9FF"/>
<stop offset="1" stop-color="#4B94FF"/>
</linearGradient>
<linearGradient id="paint3_linear_16_504" x1="100.5" y1="145" x2="100.5" y2="158" gradientUnits="userSpaceOnUse">
<stop stop-color="#89B9FF"/>
<stop offset="1" stop-color="#4B94FF"/>
</linearGradient>
<linearGradient id="paint4_linear_16_504" x1="114.5" y1="152" x2="114.5" y2="165" gradientUnits="userSpaceOnUse">
<stop stop-color="#89B9FF"/>
<stop offset="1" stop-color="#4B94FF"/>
</linearGradient>
<linearGradient id="paint5_linear_16_504" x1="117.5" y1="132" x2="117.5" y2="145" gradientUnits="userSpaceOnUse">
<stop stop-color="#89B9FF"/>
<stop offset="1" stop-color="#4B94FF"/>
</linearGradient>
<linearGradient id="paint6_linear_16_504" x1="128.5" y1="141" x2="128.5" y2="154" gradientUnits="userSpaceOnUse">
<stop stop-color="#89B9FF"/>
<stop offset="1" stop-color="#4B94FF"/>
</linearGradient>
</defs>
</svg>
