<svg width="220" height="220" viewBox="0 0 220 220" fill="none" xmlns="http://www.w3.org/2000/svg">
<circle cx="110" cy="110" r="110" fill="white"/>
<path fill-rule="evenodd" clip-rule="evenodd" d="M132.835 70C134.415 70 135.697 71.2816 135.697 72.8625C135.697 74.4433 134.415 75.7249 132.835 75.7249C131.254 75.7249 129.972 74.4433 129.972 72.8625C129.972 71.2816 131.254 70 132.835 70ZM132.835 118.253C143.449 118.253 152.054 109.648 152.054 99.0334C152.054 88.4189 143.449 79.8141 132.835 79.8141C122.22 79.8141 113.615 88.4189 113.615 99.0334C113.615 109.648 122.22 118.253 132.835 118.253ZM159.006 101.896C160.586 101.896 161.868 100.614 161.868 99.0334C161.868 97.4525 160.586 96.171 159.006 96.171C157.425 96.171 156.143 97.4525 156.143 99.0334C156.143 100.614 157.425 101.896 159.006 101.896ZM153.364 119.563C152.246 120.681 150.434 120.681 149.316 119.563C148.198 118.445 148.198 116.633 149.316 115.515C150.434 114.397 152.246 114.397 153.364 115.515C154.482 116.633 154.482 118.445 153.364 119.563ZM112.305 82.5518C113.423 83.6697 115.235 83.6697 116.353 82.5518C117.471 81.434 117.471 79.6216 116.353 78.5037C115.235 77.3859 113.423 77.3859 112.305 78.5037C111.187 79.6216 111.187 81.434 112.305 82.5518ZM149.316 82.5522C148.198 81.4343 148.198 79.6219 149.316 78.5041C150.434 77.3862 152.246 77.3862 153.364 78.5041C154.482 79.6219 154.482 81.4343 153.364 82.5522C152.246 83.67 150.434 83.67 149.316 82.5522Z" fill="#FFD600"/>
<path fill-rule="evenodd" clip-rule="evenodd" d="M65.1862 111.066C69.27 106.982 74.4353 104.639 79.7601 104.036C80.351 91.0108 91.0983 80.6318 104.27 80.6318C117.019 80.6318 127.496 90.3554 128.692 102.791C140.921 100.879 152.876 108.462 156.152 120.688C159.656 133.768 151.901 147.213 138.828 150.731L138.802 150.738C137.585 151.064 136.333 150.341 136.007 149.124L135.959 148.902C135.77 147.758 136.477 146.635 137.621 146.329L137.621 146.329L137.621 146.329C148.274 143.474 154.597 132.523 151.742 121.87C148.887 111.216 137.937 104.894 127.283 107.748C127.215 107.767 127.147 107.782 127.078 107.793L126.994 107.401C126.989 107.402 126.985 107.403 126.981 107.404L127.066 107.796C125.973 107.978 124.899 107.343 124.536 106.29C124.348 105.959 124.241 105.576 124.241 105.167V105.167H124.24V105.167C124.24 94.1375 115.299 85.1964 104.269 85.1964C93.6501 85.1964 84.9667 93.485 84.3356 103.946C89.9855 104.359 95.5196 106.72 99.8467 111.029C99.8597 111.041 99.8726 111.054 99.8854 111.066C100.777 111.958 100.777 113.403 99.8854 114.294C98.9941 115.185 97.549 115.185 96.6576 114.294L96.657 114.293L96.6567 114.294C88.8577 106.495 76.2131 106.495 68.4142 114.294C60.6281 122.08 60.6152 134.696 68.3756 142.498C68.3889 142.511 68.4021 142.523 68.4152 142.537C69.3065 143.428 69.3065 144.873 68.4152 145.764C67.5239 146.656 66.0788 146.656 65.1875 145.764L65.1868 145.764L65.1862 145.764C55.6046 136.183 55.6046 120.648 65.1862 111.066ZM127.066 107.796C127.07 107.795 127.074 107.794 127.078 107.793L135.959 148.902C135.959 148.902 135.959 148.903 135.959 148.903L127.066 107.796ZM135.959 148.903L136.007 149.124C135.987 149.05 135.972 148.977 135.959 148.903Z" fill="black"/>
</svg>
