<svg width="220" height="220" viewBox="0 0 220 220" fill="none" xmlns="http://www.w3.org/2000/svg">
<circle cx="110" cy="110" r="110" fill="white"/>
<path fill-rule="evenodd" clip-rule="evenodd" d="M114.763 67.6916C114.763 65.1006 112.663 63.0002 110.072 63.0002C107.481 63.0002 105.381 65.1006 105.381 67.6916C105.381 70.2825 107.481 72.3829 110.072 72.3829C112.663 72.3829 114.763 70.2825 114.763 67.6916ZM141.571 110.583C141.571 127.979 127.469 142.082 110.072 142.082C92.676 142.082 78.5735 127.979 78.5735 110.583C78.5735 93.1864 92.676 79.0839 110.072 79.0839C127.469 79.0839 141.571 93.1864 141.571 110.583ZM110.072 148.224C112.663 148.224 114.763 150.324 114.763 152.915C114.763 155.506 112.663 157.606 110.072 157.606C107.481 157.606 105.381 155.506 105.381 152.915C105.381 150.324 107.481 148.224 110.072 148.224ZM152.965 115.274C155.556 115.274 157.657 113.174 157.657 110.583C157.657 107.992 155.556 105.892 152.965 105.892C150.374 105.892 148.274 107.992 148.274 110.583C148.274 113.174 150.374 115.274 152.965 115.274ZM71.3241 110.583C71.3241 113.174 69.2237 115.274 66.6327 115.274C64.0418 115.274 61.9414 113.174 61.9414 110.583C61.9414 107.992 64.0418 105.892 66.6327 105.892C69.2237 105.892 71.3241 107.992 71.3241 110.583ZM137.084 144.229C138.917 146.061 141.887 146.061 143.719 144.229C145.551 142.397 145.551 139.427 143.719 137.595C141.887 135.762 138.917 135.762 137.084 137.595C135.252 139.427 135.252 142.397 137.084 144.229ZM83.0613 83.5708C81.2293 85.4029 78.2589 85.4029 76.4268 83.5708C74.5947 81.7387 74.5947 78.7684 76.4268 76.9363C78.2589 75.1042 81.2293 75.1042 83.0613 76.9363C84.8934 78.7684 84.8934 81.7387 83.0613 83.5708ZM143.719 83.5712C145.551 81.7391 145.551 78.7687 143.719 76.9367C141.887 75.1046 138.916 75.1046 137.084 76.9367C135.252 78.7687 135.252 81.7391 137.084 83.5712C138.916 85.4033 141.887 85.4033 143.719 83.5712ZM83.062 137.594C84.8941 139.426 84.8941 142.397 83.062 144.229C81.23 146.061 78.2596 146.061 76.4275 144.229C74.5954 142.397 74.5954 139.426 76.4275 137.594C78.2596 135.762 81.23 135.762 83.062 137.594Z" fill="url(#paint0_linear_16_1262)"/>
<defs>
<linearGradient id="paint0_linear_16_1262" x1="109.799" y1="63.0002" x2="109.799" y2="157.606" gradientUnits="userSpaceOnUse">
<stop stop-color="#FFD600"/>
<stop offset="1" stop-color="#FFB800"/>
</linearGradient>
</defs>
</svg>
