<svg width="220" height="220" viewBox="0 0 220 220" fill="none" xmlns="http://www.w3.org/2000/svg">
<circle cx="110" cy="110" r="110" fill="white"/>
<path fill-rule="evenodd" clip-rule="evenodd" d="M137.555 125C142.713 125 146.777 120.907 146.777 116C146.777 111.093 142.713 107 137.555 107C137.481 107 137.407 107.001 137.333 107.003V107C136.228 107 135.333 106.105 135.333 105C135.333 103.895 136.228 103 137.333 103C137.354 103 137.374 103 137.395 103.001C137.448 103 137.502 103 137.555 103C144.858 103 150.777 108.82 150.777 116C150.777 122.762 145.526 128.319 138.814 128.942C138.66 128.98 138.499 129 138.333 129H137.555H90.333C89.2284 129 88.333 128.105 88.333 127C88.333 125.895 89.2284 125 90.333 125H137.333V124.997C137.407 124.999 137.481 125 137.555 125ZM70 115.028C70 113.785 71.0074 112.778 72.25 112.778H114.417C115.659 112.778 116.667 113.785 116.667 115.028C116.667 116.27 115.659 117.278 114.417 117.278H72.25C71.0074 117.278 70 116.27 70 115.028ZM70 139.5C70 138.119 71.1193 137 72.5 137H140.5C141.881 137 143 138.119 143 139.5C143 140.881 141.881 142 140.5 142H72.5C71.1193 142 70 140.881 70 139.5Z" fill="black"/>
<circle cx="81" cy="80" r="3" fill="#FFD600"/>
<circle cx="107" cy="80" r="3" fill="#FFD600"/>
<circle cx="81" cy="104" r="3" fill="#FFD600"/>
<circle cx="107" cy="104" r="3" fill="#FFD600"/>
<circle cx="94" cy="92" r="3" fill="#FFD600"/>
</svg>
